<?xml version="1.0" encoding="UTF-8"?>
<svg id="Layer_1" data-name="Layer 1" xmlns="http://www.w3.org/2000/svg" viewBox="0 0 560.27 299.65">
  <defs>
    <style>
      .cls-1 {
        fill: #45771d;
      }

      .cls-2 {
        fill: #132a13;
        font-family: AgencyFB-Reg, 'Agency FB';
        font-size: 65px;
        letter-spacing: .38em;
      }
    </style>
  </defs>
  <g>
    <rect class="cls-1" x="43" y="85.01" width="18" height="202"/>
    <polygon class="cls-1" points="313.17 64.01 188.1 0 179.9 16.02 273.66 64.01 313.17 64.01"/>
    <polygon class="cls-1" points="0 116.56 196.11 16.02 187.89 0 0 96.33 0 116.56"/>
  </g>
  <g>
    <path class="cls-1" d="m141.81,212.22c0,8.53-3.29,12.79-9.87,12.79h-35.29c-6.44,0-9.66-4.26-9.66-12.79v-114.33c0-8.59,3.22-12.88,9.66-12.88h35.29c6.58,0,9.87,4.29,9.87,12.88v114.33Zm-16.26-5.19v-104.04h-22.3v104.04h22.3Z"/>
    <path class="cls-1" d="m209.27,212.22c0,8.53-3.33,12.79-10,12.79h-34.53c-6.58,0-9.87-4.26-9.87-12.79v-127.21h16.26v122.02h21.88v-122.02h16.26v127.21Z"/>
    <path class="cls-1" d="m269.57,103.53h-17.92v121.48h-16.19v-121.48h-17.92v-18.52h52.03v18.52Z"/>
    <path class="cls-1" d="m332.03,198.62c0,8.23-1.9,14.69-5.7,19.37-3.8,4.68-8.92,7.02-15.35,7.02h-33.14V85.01h33.14c6.44,0,11.56,2.37,15.35,7.11,3.8,4.74,5.7,11.23,5.7,19.46v87.04Zm-16.33-3.49v-80.42c0-7.81-3.17-11.72-9.52-11.72h-12.09v104.04h11.67c6.62,0,9.93-3.96,9.93-11.9Z"/>
    <path class="cls-1" d="m399.42,212.22c0,8.53-3.29,12.79-9.86,12.79h-35.29c-6.44,0-9.66-4.26-9.66-12.79v-114.33c0-8.59,3.22-12.88,9.66-12.88h35.29c6.58,0,9.86,4.29,9.86,12.88v114.33Zm-16.26-5.19v-104.04h-22.3v104.04h22.3Z"/>
    <path class="cls-1" d="m467.29,212.22c0,8.53-3.29,12.79-9.86,12.79h-35.29c-6.44,0-9.66-4.26-9.66-12.79v-114.33c0-8.59,3.22-12.88,9.66-12.88h35.29c6.58,0,9.86,4.29,9.86,12.88v114.33Zm-16.26-5.19v-104.04h-22.3v104.04h22.3Z"/>
    <path class="cls-1" d="m536,225.01h-16.95l-17.92-65.03v-12.61h15.98v-44.37h-20.49v122.02h-16.26V85.01h43.14c6.53,0,9.8,4.29,9.8,12.88v50.9c0,5.9-1.55,9.72-4.65,11.45-1.67.89-5.19,1.34-10.56,1.34l17.92,63.43Z"/>
  </g>
  <text class="cls-2" transform="translate(87.14 286.64)"><tspan x="0" y="0">WAREHOUSE</tspan></text>
</svg>