<?xml version="1.0" encoding="UTF-8"?>
<svg id="Layer_1" data-name="Layer 1" xmlns="http://www.w3.org/2000/svg" viewBox="0 0 1948.33 934.81">
  <defs>
    <style>
      .cls-1 {
        stroke: #fff;
        stroke-miterlimit: 10;
        stroke-width: 14px;
      }

      .cls-1, .cls-2 {
        fill: #457838;
      }
    </style>
  </defs>
  <path class="cls-2" d="m1512.3,644.59v-357.42s2.07-27.89,26.86-27.89h262.38s32.02-2.07,43.39,35.12l58.88,191.1h10.33s12.4,4.13,12.4,21.69v190.07s14.98-1.03,14.98,14.98-1.55,99.17-29.96,99.17h-399.25v-166.83Z"/>
  <path class="cls-1" d="m1641.77,294.75h161.15s17.91-3.44,22.73,17.22l39.25,138.42,8.26,32.37v81.26s2.75,24.1-18.59,24.1h-39.94s-27.55,4.13-27.55-18.59v-75.06l-141.17-31.68s-20.66-3.44-20.66-26.17v-121.2s0-20.66,16.53-20.66Z"/>
  <rect class="cls-2" x="1617.67" y="594.32" width="55.78" height="36.5" rx="5.17" ry="5.17"/>
  <path class="cls-1" d="m1941.31,723.79h-20.63s-11.71-.36-11.71,6.88v26.86s2.21,9.77,28.3,9.77c0,0,3.99-29.26,4.03-43.5Z"/>
  <path class="cls-2" d="m1477.18,811.42V105.37s4.13-45.45-55.78-45.45H384.27L324.36,0H78.51v834.66H0v20.66h132.22v-43.9h557.82l48.58-44.12h250.99v44.12h-146.69v19.11h187.32v-63.23h378.76l28.92,44.12h39.25Z"/>
  <circle class="cls-1" cx="1673.45" cy="812.38" r="115.43" transform="translate(498.32 2254.41) rotate(-76.72)"/>
  <circle class="cls-1" cx="529.51" cy="812.38" r="115.43" transform="translate(-419.35 612.36) rotate(-45)"/>
  <rect class="cls-2" x="1466.85" y="661.12" width="55.78" height="150.3"/>
</svg>